<svg width="600" height="400" viewBox="0 0 600 400" fill="none" xmlns="http://www.w3.org/2000/svg">
  <rect width="600" height="400" rx="16" fill="#fafafa"/>
  <rect width="600" height="400" rx="16" stroke="#f0f0f0" stroke-width="1"/>
  <rect x="40" y="40" width="520" height="320" rx="12" fill="white" stroke="#e5e5e5" stroke-width="1"/>
  <circle cx="70" cy="70" r="20" fill="#4f46e5" fill-opacity="0.1"/>
  <path d="M62 70L68 76L78 64" stroke="#4f46e5" stroke-width="3" stroke-linecap="round" stroke-linejoin="round"/>
  <rect x="110" y="60" width="120" height="10" rx="3" fill="#d4d4d4"/>
  <rect x="110" y="76" width="80" height="8" rx="3" fill="#e5e5e5"/>
  <rect x="40" y="110" width="520" height="1" fill="#f0f0f0"/>
  <rect x="60" y="130" width="160" height="12" rx="3" fill="#d4d4d4"/>
  <rect x="60" y="152" width="480" height="8" rx="3" fill="#e5e5e5"/>
  <rect x="60" y="168" width="440" height="8" rx="3" fill="#e5e5e5"/>
  <rect x="60" y="184" width="400" height="8" rx="3" fill="#e5e5e5"/>
  <rect x="60" y="210" width="480" height="1" fill="#f0f0f0"/>
  <rect x="60" y="230" width="160" height="12" rx="3" fill="#d4d4d4"/>
  <rect x="60" y="252" width="480" height="8" rx="3" fill="#e5e5e5"/>
  <rect x="60" y="268" width="440" height="8" rx="3" fill="#e5e5e5"/>
  <rect x="60" y="284" width="400" height="8" rx="3" fill="#e5e5e5"/>
  <rect x="60" y="310" width="480" height="1" fill="#f0f0f0"/>
  <rect x="440" y="325" width="100" height="24" rx="6" fill="#4f46e5" fill-opacity="0.1"/>
  <rect x="450" y="330" width="80" height="14" rx="3" fill="#4f46e5" fill-opacity="0.2"/>
</svg>
