<svg width="600" height="400" viewBox="0 0 600 400" fill="none" xmlns="http://www.w3.org/2000/svg">
  <rect width="600" height="400" rx="16" fill="#fafafa"/>
  <rect width="600" height="400" rx="16" stroke="#f0f0f0" stroke-width="1"/>
  <rect x="40" y="40" width="520" height="320" rx="12" fill="white" stroke="#e5e5e5" stroke-width="1"/>
  <rect x="60" y="60" width="140" height="12" rx="3" fill="#d4d4d4"/>
  <rect x="60" y="85" width="480" height="1" fill="#f0f0f0"/>
  <rect x="60" y="105" width="30" height="30" rx="6" fill="#4f46e5" fill-opacity="0.1"/>
  <rect x="110" y="110" width="120" height="10" rx="3" fill="#d4d4d4"/>
  <rect x="110" y="126" width="80" height="8" rx="3" fill="#e5e5e5"/>
  <rect x="60" y="150" width="30" height="30" rx="6" fill="#059669" fill-opacity="0.1"/>
  <rect x="110" y="155" width="140" height="10" rx="3" fill="#d4d4d4"/>
  <rect x="110" y="171" width="90" height="8" rx="3" fill="#e5e5e5"/>
  <rect x="60" y="195" width="30" height="30" rx="6" fill="#d97706" fill-opacity="0.1"/>
  <rect x="110" y="200" width="100" height="10" rx="3" fill="#d4d4d4"/>
  <rect x="110" y="216" width="70" height="8" rx="3" fill="#e5e5e5"/>
  <rect x="60" y="240" width="30" height="30" rx="6" fill="#e5e5e5"/>
  <rect x="110" y="245" width="130" height="10" rx="3" fill="#e5e5e5"/>
  <rect x="110" y="261" width="80" height="8" rx="3" fill="#e5e5e5"/>
  <rect x="60" y="285" width="480" height="1" fill="#f0f0f0"/>
  <rect x="60" y="305" width="480" height="40" rx="8" fill="#4f46e5" fill-opacity="0.05"/>
  <rect x="80" y="315" width="24" height="24" rx="4" fill="#4f46e5" fill-opacity="0.15"/>
  <rect x="120" y="318" width="200" height="10" rx="3" fill="#4f46e5" fill-opacity="0.15"/>
  <rect x="120" y="332" width="140" height="8" rx="3" fill="#4f46e5" fill-opacity="0.1"/>
</svg>
