<svg width="600" height="400" viewBox="0 0 600 400" fill="none" xmlns="http://www.w3.org/2000/svg">
  <rect width="600" height="400" rx="16" fill="#fafafa"/>
  <rect width="600" height="400" rx="16" stroke="#f0f0f0" stroke-width="1"/>
  <rect x="40" y="40" width="520" height="320" rx="12" fill="white" stroke="#e5e5e5" stroke-width="1"/>
  <rect x="60" y="60" width="140" height="12" rx="3" fill="#d4d4d4"/>
  <rect x="60" y="90" width="480" height="140" rx="8" fill="#fafafa" stroke="#f0f0f0" stroke-width="1"/>
  <rect x="80" y="110" width="200" height="8" rx="3" fill="#e5e5e5"/>
  <rect x="80" y="130" width="300" height="8" rx="3" fill="#e5e5e5"/>
  <rect x="80" y="150" width="250" height="8" rx="3" fill="#e5e5e5"/>
  <rect x="80" y="180" width="130" height="30" rx="6" fill="#4f46e5" fill-opacity="0.1"/>
  <rect x="90" y="188" width="100" height="14" rx="3" fill="#4f46e5" fill-opacity="0.2"/>
  <rect x="240" y="180" width="130" height="30" rx="6" fill="#059669" fill-opacity="0.1"/>
  <rect x="260" y="188" width="80" height="14" rx="3" fill="#059669" fill-opacity="0.2"/>
  <rect x="400" y="180" width="120" height="30" rx="6" fill="#d97706" fill-opacity="0.1"/>
  <rect x="415" y="188" width="80" height="14" rx="3" fill="#d97706" fill-opacity="0.2"/>
  <rect x="60" y="250" width="480" height="1" fill="#f0f0f0"/>
  <rect x="60" y="270" width="140" height="12" rx="3" fill="#d4d4d4"/>
  <rect x="60" y="295" width="220" height="8" rx="3" fill="#e5e5e5"/>
  <rect x="60" y="312" width="180" height="8" rx="3" fill="#e5e5e5"/>
  <rect x="330" y="295" width="120" height="30" rx="6" fill="#4f46e5"/>
  <rect x="350" y="303" width="80" height="14" rx="3" fill="white" fill-opacity="0.8"/>
</svg>
