<svg width="1200" height="700" viewBox="0 0 1200 700" fill="none" xmlns="http://www.w3.org/2000/svg">
  <rect width="1200" height="700" rx="12" fill="white"/>
  <rect x="0" y="0" width="1200" height="700" rx="12" fill="url(#grad)" fill-opacity="0.05"/>
  <rect x="0" y="0" width="1200" height="56" rx="12" fill="#fafafa"/>
  <rect x="0" y="56" width="1200" height="1" fill="#f0f0f0"/>
  <circle cx="28" cy="28" r="16" fill="#e5e5e5"/>
  <rect x="56" y="20" width="80" height="16" rx="4" fill="#e5e5e5"/>
  <rect x="160" y="20" width="60" height="16" rx="4" fill="#e5e5e5"/>
  <rect x="240" y="20" width="70" height="16" rx="4" fill="#4f46e5" fill-opacity="0.15"/>
  <rect x="330" y="20" width="55" height="16" rx="4" fill="#e5e5e5"/>
  <rect x="1100" y="16" width="80" height="24" rx="6" fill="#4f46e5"/>
  <rect x="40" y="80" width="300" height="180" rx="10" fill="#f5f5f5"/>
  <rect x="40" y="80" width="300" height="180" rx="10" stroke="#e5e5e5" stroke-width="1"/>
  <rect x="60" y="100" width="100" height="12" rx="3" fill="#d4d4d4"/>
  <rect x="60" y="120" width="160" height="8" rx="3" fill="#e5e5e5"/>
  <rect x="60" y="200" width="120" height="40" rx="5" fill="#4f46e5" fill-opacity="0.1"/>
  <rect x="60" y="205" width="80" height="30" rx="3" fill="#4f46e5" fill-opacity="0.2"/>
  <circle cx="200" cy="220" r="30" fill="none" stroke="#4f46e5" stroke-width="8" stroke-dasharray="100 50"/>
  <rect x="370" y="80" width="300" height="180" rx="10" fill="#f5f5f5"/>
  <rect x="370" y="80" width="300" height="180" rx="10" stroke="#e5e5e5" stroke-width="1"/>
  <rect x="390" y="100" width="100" height="12" rx="3" fill="#d4d4d4"/>
  <rect x="390" y="120" width="160" height="8" rx="3" fill="#e5e5e5"/>
  <rect x="390" y="150" width="260" height="6" rx="3" fill="#e5e5e5"/>
  <rect x="390" y="165" width="200" height="6" rx="3" fill="#e5e5e5"/>
  <rect x="390" y="180" width="230" height="6" rx="3" fill="#e5e5e5"/>
  <rect x="390" y="200" width="260" height="8" rx="4" fill="#4f46e5" fill-opacity="0.15"/>
  <rect x="390" y="215" width="200" height="8" rx="4" fill="#059669" fill-opacity="0.15"/>
  <rect x="390" y="230" width="180" height="8" rx="4" fill="#d97706" fill-opacity="0.15"/>
  <rect x="700" y="80" width="460" height="180" rx="10" fill="#f5f5f5"/>
  <rect x="700" y="80" width="460" height="180" rx="10" stroke="#e5e5e5" stroke-width="1"/>
  <rect x="720" y="100" width="100" height="12" rx="3" fill="#d4d4d4"/>
  <rect x="720" y="120" width="200" height="8" rx="3" fill="#e5e5e5"/>
  <rect x="720" y="150" width="420" height="90" rx="6" fill="#fafafa"/>
  <rect x="740" y="165" width="60" height="60" rx="6" fill="#4f46e5" fill-opacity="0.1"/>
  <rect x="820" y="170" width="100" height="10" rx="3" fill="#d4d4d4"/>
  <rect x="820" y="185" width="140" height="8" rx="3" fill="#e5e5e5"/>
  <rect x="820" y="200" width="120" height="8" rx="3" fill="#e5e5e5"/>
  <rect x="40" y="280" width="1120" height="200" rx="10" fill="#fafafa"/>
  <rect x="40" y="280" width="1120" height="200" rx="10" stroke="#e5e5e5" stroke-width="1"/>
  <rect x="60" y="300" width="100" height="12" rx="3" fill="#d4d4d4"/>
  <rect x="60" y="330" width="1080" height="40" rx="6" fill="white" stroke="#f0f0f0" stroke-width="1"/>
  <rect x="80" y="340" width="14" height="14" rx="3" fill="#e5e5e5"/>
  <rect x="110" y="342" width="120" height="10" rx="3" fill="#d4d4d4"/>
  <rect x="340" y="342" width="100" height="10" rx="3" fill="#e5e5e5"/>
  <rect x="560" y="342" width="60" height="10" rx="3" fill="#e5e5e5"/>
  <rect x="740" y="340" width="50" height="14" rx="4" fill="#059669" fill-opacity="0.2"/>
  <rect x="1000" y="340" width="80" height="10" rx="3" fill="#e5e5e5"/>
  <rect x="60" y="380" width="1080" height="40" rx="6" fill="white" stroke="#f0f0f0" stroke-width="1"/>
  <rect x="80" y="390" width="14" height="14" rx="3" fill="#e5e5e5"/>
  <rect x="110" y="392" width="120" height="10" rx="3" fill="#d4d4d4"/>
  <rect x="340" y="392" width="100" height="10" rx="3" fill="#e5e5e5"/>
  <rect x="560" y="392" width="60" height="10" rx="3" fill="#e5e5e5"/>
  <rect x="740" y="390" width="50" height="14" rx="4" fill="#d97706" fill-opacity="0.2"/>
  <rect x="1000" y="390" width="80" height="10" rx="3" fill="#e5e5e5"/>
  <rect x="60" y="430" width="1080" height="40" rx="6" fill="white" stroke="#f0f0f0" stroke-width="1"/>
  <rect x="80" y="440" width="14" height="14" rx="3" fill="#e5e5e5"/>
  <rect x="110" y="442" width="120" height="10" rx="3" fill="#d4d4d4"/>
  <rect x="340" y="442" width="100" height="10" rx="3" fill="#e5e5e5"/>
  <rect x="560" y="442" width="60" height="10" rx="3" fill="#e5e5e5"/>
  <rect x="740" y="440" width="50" height="14" rx="4" fill="#4f46e5" fill-opacity="0.2"/>
  <rect x="1000" y="440" width="80" height="10" rx="3" fill="#e5e5e5"/>
  <rect x="40" y="500" width="360" height="160" rx="10" fill="#f9fafb" stroke="#f0f0f0" stroke-width="1"/>
  <rect x="60" y="520" width="60" height="60" rx="8" fill="#4f46e5" fill-opacity="0.1"/>
  <rect x="140" y="525" width="100" height="12" rx="3" fill="#d4d4d4"/>
  <rect x="140" y="545" width="60" height="8" rx="3" fill="#e5e5e5"/>
  <rect x="60" y="600" width="320" height="6" rx="3" fill="#e5e5e5"/>
  <rect x="60" y="615" width="280" height="6" rx="3" fill="#e5e5e5"/>
  <rect x="60" y="630" width="200" height="6" rx="3" fill="#e5e5e5"/>
  <rect x="430" y="500" width="370" height="160" rx="10" fill="#f9fafb" stroke="#f0f0f0" stroke-width="1"/>
  <rect x="450" y="520" width="60" height="60" rx="8" fill="#059669" fill-opacity="0.1"/>
  <rect x="530" y="525" width="100" height="12" rx="3" fill="#d4d4d4"/>
  <rect x="530" y="545" width="60" height="8" rx="3" fill="#e5e5e5"/>
  <rect x="450" y="600" width="330" height="6" rx="3" fill="#e5e5e5"/>
  <rect x="450" y="615" width="290" height="6" rx="3" fill="#e5e5e5"/>
  <rect x="450" y="630" width="210" height="6" rx="3" fill="#e5e5e5"/>
  <rect x="830" y="500" width="330" height="160" rx="10" fill="#f9fafb" stroke="#f0f0f0" stroke-width="1"/>
  <rect x="850" y="520" width="60" height="60" rx="8" fill="#d97706" fill-opacity="0.1"/>
  <rect x="930" y="525" width="100" height="12" rx="3" fill="#d4d4d4"/>
  <rect x="930" y="545" width="60" height="8" rx="3" fill="#e5e5e5"/>
  <rect x="850" y="600" width="290" height="6" rx="3" fill="#e5e5e5"/>
  <rect x="850" y="615" width="250" height="6" rx="3" fill="#e5e5e5"/>
  <rect x="850" y="630" width="180" height="6" rx="3" fill="#e5e5e5"/>
  <defs>
    <linearGradient id="grad" x1="0" y1="0" x2="1" y2="1">
      <stop offset="0%" stop-color="#4f46e5"/>
      <stop offset="100%" stop-color="#818cf8"/>
    </linearGradient>
  </defs>
</svg>
